<?xml version="1.0" encoding="UTF-8"?><svg id="Calque_1" xmlns="http://www.w3.org/2000/svg" viewBox="0 0 320 320"><defs><style>.cls-1{fill:#00005b;}.cls-2{fill:#99f;}</style></defs><rect class="cls-1" width="320" height="320" rx="60" ry="60"/><path class="cls-2" d="m122.13,85.34c-.13-.67-.8-1.07-1.73-1.07h-34.53c-.67.13-1.2.8-1.07,1.47,0,2.93-.27,5.87-.8,8.67-.53,1.6-.93,2.8-1.33,4.13l-42.93,123.07c-.4,1.6,0,2.4,1.47,2.4h25.07c1.2.13,2.27-.67,2.53-1.87l10.13-31.47h49.6v-.67l10.93,32c.27.93,1.2,1.6,2.13,1.47h27.87c1.33,0,1.73-.67,1.33-2.13l-48.67-136Zm-35.47,78.8c2-5.6,4.13-11.87,5.87-18.67,2.13-6.67,4.13-13.33,6.13-19.73,1.87-5.73,3.33-11.47,4.53-17.2h.27c.93,3.2,1.87,6.67,2.93,10.4,1.07,3.87,2.27,7.73,3.6,11.87,1.33,4.13,2.53,8.13,3.87,12.27,1.2,4,2.4,7.87,3.6,11.47,1.2,3.47,2.27,6.8,3.07,9.6h-33.87Z"/><path class="cls-2" d="m271.33,146.4c-1.73-5.6-4.53-10.67-8-15.2-3.73-4.67-8.53-8.27-14-10.67-6.53-2.93-13.6-4.27-20.67-4.13-8.53,0-16,1.07-22.27,4.13-6.27,3.07-11.73,7.33-16.13,12.67-4.53,5.47-7.87,11.6-10,18.27-2.27,6.93-3.33,14-3.33,21.2,0,6.67.93,13.2,2.8,19.47,1.87,6.4,4.93,12.27,9.2,17.47,4.53,5.47,10.27,9.87,16.8,12.67,6.93,3.07,15.47,4.67,25.6,4.67,6.4.13,12.67-.4,18.93-1.6,4.67-.8,9.07-2.13,13.33-4,.4-.27.67-.53.93-.93.13-.53.27-1.07.27-1.6v-20.4c0-1.33-.4-1.6-1.07-1.07-3.73,1.47-7.73,2.53-11.87,3.07-4.53.93-9.2,1.33-13.87,1.47-5.87.13-11.73-1.07-17.07-3.33-4-1.6-7.33-4.4-9.73-8-2.27-3.6-3.6-7.73-4.13-11.87h42.27c3.47,0,6.67.53,9.73.53s5.6-.13,7.73-.4c2.13-.13,3.6-.27,4.4-.27.93,0,1.73-.8,1.87-1.73.13-1.2.27-3.07.53-5.6.13-2.53.27-5.33.27-8.53,0-5.47-.8-10.93-2.53-16.27Zm-25.47,11.6c-.93.67-2,.93-3.07,1.07-1.6.13-4.13.13-7.6.13h-28.13c.4-3.33,1.33-6.53,2.93-9.6,3.47-6.67,10.4-10.53,17.73-10.13,7.87-.27,14.93,4.8,17.33,12.27.53,1.6.8,3.2.8,4.93v1.33Z"/></svg>