<?xml version="1.0" encoding="UTF-8"?><svg id="Calque_1" xmlns="http://www.w3.org/2000/svg" viewBox="0 0 320 320"><defs><style>.cls-1{fill:#ff9a00;}.cls-2{fill:#300;}</style></defs><rect class="cls-2" width="320" height="320" rx="60" ry="60"/><g><path class="cls-1" d="m154.51,191.45h-49.28l-10.02,31.14c-.27,1.18-1.35,1.99-2.56,1.92h-24.96c-1.43,0-1.92-.78-1.49-2.35l42.66-122.89c.41-1.28.84-2.73,1.28-4.35.55-2.85.84-5.74.85-8.64-.11-.72.39-1.38,1.11-1.49,0,0,0,0,.01,0,.12-.02.25-.02.37,0h33.92c.99,0,1.56.35,1.71,1.06l48.42,136.53c.43,1.42,0,2.13-1.28,2.13h-27.73c-.98.11-1.9-.53-2.13-1.49l-10.88-31.57Zm-41.59-26.9h33.7c-.85-2.85-1.84-6.05-2.98-9.6-1.14-3.55-2.35-7.36-3.62-11.41l-3.84-12.15c-1.28-4.05-2.45-7.97-3.52-11.74-1.07-3.77-2.03-7.21-2.9-10.32h-.21c-1.2,5.76-2.7,11.45-4.48,17.06-1.99,6.4-4.02,12.95-6.08,19.63-2.06,6.68-4.08,12.86-6.05,18.54Z"/><path class="cls-1" d="m225.32,107.4c-4.4.18-8.67-1.53-11.73-4.69-3.05-3.3-4.66-7.67-4.48-12.16-.15-4.44,1.6-8.74,4.8-11.81,3.17-3.04,7.42-4.69,11.81-4.59,5.12,0,9.14,1.53,12.05,4.59,2.96,3.21,4.52,7.45,4.35,11.81.18,4.51-1.47,8.9-4.59,12.16-3.24,3.2-7.67,4.9-12.22,4.69Zm-14.72,114.97v-101.96c0-1.28.57-1.92,1.7-1.92h26.23c1.13,0,1.7.62,1.7,1.92v101.96c0,1.42-.57,2.13-1.7,2.13h-26.01c-1.28,0-1.92-.71-1.92-2.13Z"/></g></svg>