<?xml version="1.0" encoding="UTF-8"?><svg id="Calque_2" xmlns="http://www.w3.org/2000/svg" viewBox="0 0 440 159.07"><defs><style>.cls-1{fill:none;}</style></defs><g id="Calque_1-2"><path d="m182.91,69h-2.04c-.09,0-.17.07-.17.17v20.74c0,.09.07.17.17.17h3.57c.09,0,.17-.07.17-.17v-19.21c0-.94-.76-1.69-1.69-1.69Z"/><path d="m289.07,69h-2.04c-.09,0-.17.07-.17.17v20.74c0,.09.07.17.17.17h3.57c.09,0,.17-.07.17-.17v-19.21c0-.94-.76-1.69-1.69-1.69Z"/><path d="m321.96,69h-2.04c-.09,0-.17.07-.17.17v20.74c0,.09.07.17.17.17h3.57c.09,0,.17-.07.17-.17v-19.21c0-.94-.76-1.69-1.69-1.69Z"/><path d="m392.85,69h-2.04c-.09,0-.17.07-.17.17v20.74c0,.09.07.17.17.17h3.57c.09,0,.17-.07.17-.17v-19.21c0-.94-.76-1.69-1.69-1.69Z"/><path d="m228.31,68.47h8.72c.7,0,.96-.34.96-.93v-1.02c0-.09-.07-.17-.17-.17h-20.82c-.09,0-.17.07-.17.17v1.78c0,.09.07.17.17.17h8.33v21.44c0,.09.07.17.17.17h3.84c.09,0,.17-.07.17-.17v-19.64c0-.76-.5-1.53-1.18-1.8Z"/><path d="m165.98,67.82c-.58-1.28-1-1.47-1.5-1.47h-.7c-.09,0-.2.07-.24.15l-10.81,23.42c-.04.08,0,.15.1.15h1.82c.09,0,.2-.07.24-.15l3.39-7.5h7.62c.63,0,.99-.22,1.27-.84l.39-.84,4.08,9.18c.04.08.15.15.24.15h4c.09,0,.13-.07.1-.15l-10-22.1Zm-6.83,12.67l4.18-9.25,4.12,9.25h-8.3Z"/><path d="m279.19,69h-3.57c-.09,0-.17.07-.17.17v9.21h-10.07v-7.68c0-.94-.76-1.69-1.69-1.69h-2.04c-.09,0-.17.07-.17.17v20.74c0,.09.07.17.17.17h3.57c.09,0,.17-.07.17-.17v-9.76h10.07v9.76c0,.09.07.17.17.17h3.57c.09,0,.17-.07.17-.17v-20.74c0-.09-.07-.17-.17-.17Z"/><path d="m247.56,70.19c-.4-.85-.76-1.19-1.33-1.19h-.56c-.09,0-.2.07-.24.15l-9.51,20.77c-.04.08,0,.15.1.15h1.63c.09,0,.2-.07.24-.15l3.01-6.72h6.73c.55,0,.85-.25,1.07-.72l.36-.78,3.81,8.22c.04.08.15.15.24.15h3.7c.09,0,.13-.07.1-.15l-9.33-19.73Zm-5.88,11.24l3.56-7.95,3.69,7.95h-7.25Z"/><path d="m314.5,69h-18.47c-.09,0-.17.07-.17.17v1.41c0,.09.07.17.17.17h7.28v19.16c0,.09.07.17.17.17h3.57c.09,0,.17-.07.17-.17v-17.6c0-.75-.49-1.35-1.18-1.55h7.88c.55,0,.76-.27.76-.74v-.84c0-.09-.07-.17-.17-.17Z"/><path d="m383.66,69h-1.63c-.09,0-.17.07-.17.17v13.14c0,4.32-2.17,6.48-6.39,6.48-4.8,0-6.37-2.71-6.37-6.45v-11.65c0-.94-.76-1.69-1.69-1.69h-2.04c-.09,0-.17.07-.17.17v13.56c0,4.83,3.54,7.9,10.08,7.9,5.4,0,8.55-2.91,8.55-8v-13.46c0-.09-.07-.17-.17-.17Z"/><path d="m215.13,91.33c-.11,0-.44.04-.72.04-5.37,0-10.36-7.31-11.85-11.06,2.95-.73,4.6-2.69,4.6-5.37,0-3.79-2.92-5.93-8.01-5.93h-6.86c-.09,0-.17.07-.17.17v20.74c0,.09.07.17.17.17h3.57c.09,0,.17-.07.17-.17v-9.06h2.61c2.23,5.33,7.24,11.44,13.44,11.44,1.69,0,3.18-.46,3.18-.85,0-.06-.03-.11-.12-.11Zm-16.52-12.17h-2.59v-8.41h2.59c3.08,0,4.38,1.69,4.38,4.19s-1.07,4.22-4.38,4.22Z"/><path d="m358.21,66.35h-1.88c-.09,0-.17.07-.17.17v17.1l-13.71-15.87c-.82-.95-1.36-1.4-2.35-1.4h-1.02c-.09,0-.17.07-.17.17v23.39c0,.09.07.17.17.17h1.88c.09,0,.17-.07.17-.17v-17.47l15.14,17.51c.06.07.18.13.27.13h1.67c.09,0,.16-.07.16-.17v-23.39c0-.09-.07-.17-.17-.17Z"/><path d="m130.52,88.1c-1.55-2.51-2.61-3.71-3.22-4.25-2.88-2.49-5.62-3.55-7.87-4.53-.39-.17-.87-.37-1.82-.78-5.78-2.46-10.24-2.87-13.13-3.02h0c-1.06-.06-2.56.1-3.22.2-.34.05-.78.11-1.29.31-.27.1-.63.26-1.04.48.25-.19.63-.45,1.12-.69.68-.33,1.13-.45,1.13-.45,0,0,.07-.02.07-.02,0,0,9.24-2.38,18.32-7.51,4.76-2.69,8.73-4.93,8.42-7.36-.33-2.56-5.32-4.73-9.47-4.37-1.54.13-2.66.59-3.84,1.07-2.91,1.19-3.63,2.32-8.14,5.81-4.04,3.13-4.95,3.38-6.98,5.6-1.32,1.45-2.54,3.42-2.83,3.7-.29.29-1.4,1.23-1.09,1.75.13.22.61.19,1.02.63.14.15.41.78.65.96.34.33.51.14.6.46.05.16-.09.3,0,.53.09.27.12.26.21.52.04.1-.01.38-.19.53-.19.16-.5.02-.92.29-.23.15-.34.36-.35.64,0,.19.09.47.42.58,0,0,.12.03.66.14.67.15,1.2.85,1.35,1.06.02.03.03.05.04.05,4.53,6.65,22.27,12.21,22.27,12.21.81.3,8.46,2.37,10.23-.26.69-1.27-.53-3.4-1.08-4.29Z"/><path d="m102.37,85.04c-.55-1.26-.88-1.69-1.23-2.02-.49-.47-.85-.57-1.35-1.1-.04-.05-.08-.1-.13-.16-.28-.33-.37-.52-.81-1.02-.23-.26-.4-.45-.56-.6-.17-.17-.31-.28-.47-.37-.42-.21-1-.3-1.55-.16-.57.14-.76.46-1.14.34-.26-.08-.27-.25-.59-.47-.48-.33-.81-.24-1.26-.4-.56-.2-.96-.96-1.09-1.49-.17-.69-.18-1.26.14-1.89.15-.3.43-.65.66-.83.3-.23.79-.44,1.15-.53.27-.07.52-.23.66-.47.11-.19.11-.38.21-.61.01-.03.11-.24.28-.45.28-.35.5-.38.91-.71.18-.15.3-.28.54-.53,1.21-1.31,2.69-4.46,2.69-4.46.4-1.01,1.05-2.57,1.9-4.44,3.6-7.87,5.05-8.35,6.06-12.36.44-1.72,1.57-6.49-.67-11.32-.84-1.81-1.91-3.11-2.7-3.93-.11-.11-.33-.17-.53-.16,0,0-.37,0-.81.37-3.93,3.27-7.53,13.2-7.53,13.2-2.26,6.24-3.29,8.28-4.43,12.9-.59,2.4-1.1,5.02-.37,8.05.42,1.73,1.13,3.16,1.08,3.21-.33-.47-1.71-3.33-3.04-6.39-.86-1.97-1.05-2.56-2.24-5.43-.67-1.62-1.29-3.11-2.59-6.08-4.66-10.66-6.28-12.69-7.42-13.93-1.61-1.76-3.22-3.46-5.13-3.21-2.62.34-3.94,4.11-4.13,4.66-.22.62-.36,1.24-.44,1.85-.43,3.24.89,6.14,1.49,7.47.19.42.41.82.68,1.26.6.97,1.44,2.08,2.73,3.79,1.79,2.37,4.94,6.17,6.12,7.4.14.15.65.69,1.25,1.48.15.2.3.42.52.76.38.59.82,1.28,1.35,1.99.68.91,1.51,1.87,2.6,2.73,1.33,1.05,2.68,1.73,3.63,2.14-1.07-.4-2.89-1.13-5.8-2.41-2.81-1.24-5.94-2.61-9.99-4.67-5.26-2.68-9.5-5.2-14.83-7-.15-.05-2.36-.78-5.32-.77-1.49,0-3.05.02-4.07.59-.36.19-.65.44-.86.78-1.47,2.38.78,5.76,2.1,7.69,1.76,2.59,3.84,4.86,6.41,6.67,5.61,3.95,12.5,5.71,19.16,6.85,7.39,1.26,12.71.24,12.74.23.04-.01,1.71-.41,1.7-.45,0,0,.04.32-.39.45-.94.28-1.01.33-1.43.41h0c-1.42.3-2.25.68-5.36,2.14-1.28.52-3.04,1.25-5.55,2.29-5.51,2.3-5.57,2.45-8.17,3.91-5.04,2.83-5.93,3.79-6.71,4.41-2.16,1.72-5.73,5.98-5.87,9.11-.03.73.23,1,.66,1.4,2.03,1.87,6.43,1.77,8.12,1.68,5.67-.29,8.61-1.86,11.01-3.26,2.45-1.42,4.77-3.23,5.16-3.53.78-.61,1.43-1.15,3.34-2.85,1-.89,3.62-3.48,4.57-4.47,4.03-4.2,4.17-4.94,4.81-5.8.07-.09.13-.18.19-.26.22-.31.43-.66,1.02-1.4.38-.47.72-1.04.75-1.11,0,.08-.07.75-.49,1.38-.13.2-.2.35-.34.52-.23.31-.6,1.01-.93,1.67-1.09,2.21-.86,3.51-.7,4.2,1.56,6.73,2.66,16.7,8.67,23.2,2.38,2.57,4.9,3.92,7.42,2.9.66-.27,1.67-4.48,1.88-10.42.28-7.92-4.17-15.16-6.47-19.86-.21-.66-.49-1.44-.86-2.28Z"/><rect class="cls-1" width="440" height="159.07"/></g></svg>