<?xml version="1.0" encoding="UTF-8"?><svg id="Calque_2" xmlns="http://www.w3.org/2000/svg" viewBox="0 0 440 159.07"><defs><style>.cls-1{fill:none;}</style></defs><g id="Calque_1-2"><path d="m93.87,111.24h-16.53c-.12,0-.25.03-.35-.08V42.68h16.52c.21,0,.44,0,.64-.03v-17.07h-34.28v102.73h34.27v-16.5c-.03-.19-.02-.39.05-.58-.1,0-.21.02-.32.02Z"/><path d="m94.04,42.76v68.35s.06.03.09.03h16.69c.12,0,.26.05.34-.06V42.74h-16.43c-.23,0-.44,0-.68.03Z"/><polygon points="128.64 128.32 165.23 128.32 165.23 111.21 145.82 111.21 145.82 42.72 165.23 42.72 165.23 25.56 128.64 25.56 128.64 128.32"/><path d="m192.39,90.16c1.31.02,2.63-.08,3.92-.3,5.15-1,8.88-3.78,10.73-8.78,1.24-3.47,1.4-7.23.44-10.79-.73-3.24-2.66-6.08-5.4-7.95-2.72-1.88-5.8-2.58-9.05-2.61-3.48-.03-6.93,0-10.4,0-.15,0-.32-.06-.47.07v30.36h10.23Zm-4.27-5.5v-19.4h1.25c1.72.04,3.45-.13,5.16.14,3.74.58,6.37,3.05,7.1,6.81.54,2.75.44,5.47-.9,8.01-1.4,2.68-3.75,4.02-6.69,4.36-1.95.21-3.92.04-5.92.09Z"/><path d="m249.19,65.62c1.95.03,3.56-1.53,3.59-3.48.03-1.95-1.53-3.56-3.48-3.59-1.95-.03-3.56,1.53-3.59,3.48,0,.01,0,.03,0,.04,0,1.94,1.55,3.52,3.48,3.55Z"/><path d="m275.04,89.36c2.18,1.5,4.6,1.67,7.1.96,1.48-.42,2.77-1.36,3.62-2.64.03.8.12,1.6.26,2.39h5.23c-.39-2.81-.22-5.6-.25-8.39,0-1.86.03-3.73,0-5.6-.07-3.05-1.28-5.47-4.14-6.73-2.96-1.38-6.36-1.42-9.35-.13-2.59,1-4.41,3.35-4.76,6.1l5.08,1.09c.34-1.65,1.01-2.61,2.23-3.08,1.18-.48,2.5-.48,3.68,0,.74.26,1.32.85,1.56,1.6.4,1.23-.1,2.06-1.37,2.26-.97.15-1.95.27-2.92.44-1.46.25-2.96.32-4.36.87-2.25.85-3.82,2.33-4.2,4.79-.46,2.37.57,4.78,2.6,6.08Zm4.59-7.71h0c.68-.24,1.38-.38,2.1-.44,1.13-.18,2.26-.34,3.4-.52.08,0,.17,0,.31-.03,0,1.79,0,3.58-1.57,4.82-1.15.9-2.67,1.2-4.08.8-1-.25-1.7-1.15-1.71-2.18-.09-1.07.55-2.07,1.55-2.46Z"/><rect x="246.39" y="69" width="5.66" height="21.07"/><path d="m284.64,106.79c-2.71-.14-5.17.5-6.97,2.75,0,0-.06,0-.16-.02v-2.26h-5.48v29.18h5.69v-10.07c.66.79,1.51,1.41,2.47,1.79,3.92,1.58,9.56.63,12.2-4.46,1.38-2.68,1.65-5.53,1.17-8.47-.71-4.41-3.59-8.17-8.91-8.44Zm2.13,15.16h0c-1.27,1.56-2.99,2.06-4.93,1.68-2.04-.4-3.28-1.74-3.92-3.67-.19-.66-.29-1.35-.3-2.04.04-1.89.48-3.5,1.81-4.69h0c2.07-1.92,5.3-1.79,7.21.28.65.71,1.09,1.58,1.26,2.52.46,2.1.29,4.16-1.13,5.92Z"/><path d="m269.09,85.16c-.65.1-1.3.16-1.96.16-1.55-.04-2.26-.77-2.26-2.31v-8.4c0-.17-.07-.36.11-.54h4.07v-5.1h-4.19v-6.24h-5.16v.72c.03.97,0,1.94-.07,2.9-.13,1.46-1.34,2.59-2.81,2.61-.46.03-.93,0-1.42,0v5.13h3.77v.64c0,3.21-.03,6.42.03,9.63.04,2.08.82,3.87,2.67,4.99,2.2,1.31,4.57,1.28,6.97.62.16-.02.28-.17.25-.33,0,0,0,0,0,0v-4.47Z"/><path d="m261.18,106.73h0c-2.67-.27-5.07.32-6.91,2.43-.26.3-.5.62-.76.95-1.31-2.42-3.44-3.38-6.02-3.43-2.52-.14-4.94,1.01-6.42,3.05v-2.45h-5.4v21.03h5.7v-7.92c0-1.56-.06-3.12,0-4.68.15-3.57,3.48-4.55,5.77-3.45,1.42.69,1.83,2.03,1.84,3.47v11.95c-.04.21-.02.43.07.63h5.64v-12.27c0-.47.05-.93.17-1.38.45-1.72,2.05-2.88,3.82-2.77,1.82.03,3.05.97,3.45,2.65.11.49.16.99.15,1.49v11.73c-.03.18-.02.37.04.54h5.48c.01-.07.02-.14.03-.2v-13.78c.02-1.39-.31-2.75-.96-3.98-1.23-2.25-3.21-3.37-5.7-3.62Z"/><path d="m300.85,90.06v-30.32h-5.66v30.35h5.49c.06,0,.12-.02.17-.03Z"/><path d="m335.28,117.65h0c-1.2-1.06-2.67-1.78-4.25-2.06-1.17-.26-2.35-.48-3.52-.77-.81-.13-1.43-.78-1.53-1.59-.04-.81.42-1.57,1.16-1.9,1.35-.64,2.94-.41,4.06.58.49.53.82,1.18.95,1.89l4.73-1.07c-.12-1.17-.57-2.28-1.31-3.2-1.38-1.74-3.27-2.58-5.43-2.82-2.87-.32-5.51.2-7.61,2.37-2.31,2.37-2.43,6.21-.25,8.52,1.24,1.31,2.87,1.9,4.59,2.3,1.18.21,2.35.5,3.48.87.95.38,1.37,1.02,1.31,1.87-.07.87-.7,1.59-1.55,1.78-2.41.76-4.49-.47-5.1-3.03l-4.87,1.07c.23,1.71,1.07,3.27,2.37,4.4,1.63,1.45,3.6,2.02,5.73,2.12,2.33.11,4.54-.27,6.44-1.76,3.04-2.41,3.33-6.97.59-9.57Z"/><path d="m316.56,107.28h-5.7v12.14c0,.38-.03.75-.1,1.12-.27,1.78-1.79,3.09-3.59,3.11-2.03.1-3.45-.87-3.95-2.75-.14-.56-.21-1.13-.2-1.71v-11.36c.04-.19.02-.39-.06-.57h-5.58c-.07.19-.09.4-.06.61v12.6c0,.43.02.86.07,1.28.74,6.53,6.79,8.28,11.09,6.56,1.08-.43,2.01-1.16,2.67-2.12,0,.71.07,1.42.2,2.11h5.37c-.3-7.04-.04-14.04-.17-21.03Z"/><path d="m231.49,114.58c0-3.59-1.79-6.23-5-7.3-2.43-.83-5.05-.89-7.51-.15-2.03.55-3.76,1.88-4.82,3.69-.52.84-.82,1.79-.87,2.78l5.04,1.06c.24-1.61,1.04-2.71,2.56-3.2,1.03-.33,2.15-.32,3.17.05.75.23,1.36.78,1.66,1.5.52,1.27.05,2.18-1.31,2.41-1.09.2-2.18.33-3.29.51-1.41.22-2.84.34-4.2.87-3.19,1.09-4.88,4.56-3.79,7.75.22.64.55,1.25.97,1.78,1.46,1.82,3.43,2.58,5.71,2.65,2.55.05,4.73-.73,6.31-2.84h0s.07-.07.15,0c.06.62.12,1.26.17,1.9,0,.2.05.34.3.34h4.99c-.08-1.04-.23-2.03-.23-3.03v-10.76Zm-6.05,7.72c-.82,1.92-3.47,2.97-5.41,2.16-.87-.32-1.45-1.14-1.47-2.06-.11-1,.43-1.95,1.33-2.38.78-.41,1.66-.44,2.5-.57l3.48-.54c.13,1.15-.02,2.32-.44,3.4Z"/><path d="m241.11,93.26c.73-1.6,1.1-3.34,1.09-5.09.02-6.21.02-12.41,0-18.63.03-.18,0-.37-.07-.54h-5.42v2.36c-.49-.78-1.17-1.41-1.98-1.85-2.92-1.56-8.01-1.31-11.09,2.15-2.52,2.82-3.21,6.14-2.47,9.77,1.01,5.16,5.98,8.55,11.15,7.61,1.67-.23,3.19-1.1,4.23-2.44.1,1.23.02,2.47-.24,3.67-.35,1.64-1.61,2.93-3.24,3.33-.42.11-.84.19-1.27.23-1.93.17-3.64-.25-4.88-1.87-.44-.62-.74-1.33-.87-2.08l-5.09,1.34c-.02.06-.03.12-.03.18.02.15.04.29.07.44.6,2.54,2.32,4.67,4.67,5.78,3.15,1.61,6.46,1.65,9.78.64,2.53-.75,4.61-2.58,5.66-5Zm-7.91-9.19c-3.42.97-6.48-1.31-6.53-4.87-.04-2.27.72-4.13,2.87-5.12v.02c3.52-1.62,7.13.87,7.13,4.84,0,2.55-1.33,4.52-3.46,5.12Z"/><path d="m214.42,65.62c1.92.02,3.5-1.53,3.52-3.45,0-.02,0-.04,0-.07.06-1.94-1.47-3.56-3.41-3.62s-3.56,1.47-3.62,3.41c0,.08,0,.16,0,.25.03,1.92,1.58,3.47,3.51,3.48Z"/><rect x="211.61" y="69" width="5.66" height="21.07"/><path d="m196.67,123.17c-3.99.38-7.76-1.89-9.3-5.59-1.21-2.88-1.2-6.14.04-9.01,2.4-5.74,9.11-6.71,13.22-4.33,1.88,1.09,2.98,2.79,3.57,4.94l5.57-1.74c-.01-.12-.03-.24-.06-.36-.81-3.14-2.8-5.84-5.55-7.54-3.51-2.18-7.35-2.68-11.32-1.91-4.99.97-8.68,3.77-10.89,8.37-1.45,3.07-1.93,6.51-1.37,9.86.61,4.42,2.68,8.03,6.43,10.52,3.41,2.29,7.21,2.99,11.24,2.46,4.64-.61,8.18-2.91,10.49-7,.58-.99.99-2.07,1.23-3.19l-5.5-1.66c-1.31,3.75-3.85,5.86-7.81,6.18Z"/><rect class="cls-1" width="440" height="159.07"/></g></svg>