<?xml version="1.0" encoding="UTF-8"?><svg id="Calque_2" xmlns="http://www.w3.org/2000/svg" viewBox="0 0 32 29.5"><g id="Calque_1-2"><path d="m16.88,19.37l7.54-6.98v-3.52l-7.12,6.59V0h-2.58v15.47l-7.12-6.59v3.52l7.54,6.98c.49.46,1.26.46,1.75,0Z"/><path d="m2.58,26.92v-10.4H0v10.4c0,1.42,1.16,2.58,2.58,2.58h2.3c-.19-.39-.3-.82-.3-1.29s.11-.9.3-1.29h-2.3Z"/><path d="m29.42,16.52v10.4H10.29c.19.39.3.83.3,1.29s-.11.9-.3,1.29h19.12c1.42,0,2.58-1.16,2.58-2.58v-10.4h-2.58Z"/><path d="m8.09,27.02c-.15-.07-.32-.1-.5-.1s-.35.04-.5.1c-.31.13-.56.38-.69.69-.07.15-.1.32-.1.5s.04.35.1.5c.13.31.38.56.69.69.15.06.31.1.49.1,0,0,.01,0,.02,0s.01,0,.02,0c.17,0,.34-.03.49-.1.31-.13.56-.38.69-.69.07-.15.1-.32.1-.5s-.04-.35-.1-.5c-.13-.31-.38-.56-.69-.69Z"/></g></svg>