<?xml version="1.0" encoding="UTF-8"?><svg id="Calque_2" xmlns="http://www.w3.org/2000/svg" viewBox="0 0 419.07 159.07"><defs><style>.cls-1{fill:none;}.cls-2{fill:#c4c4c4;}.cls-3{fill:#9c9c9c;}.cls-3,.cls-4{fill-rule:evenodd;}</style></defs><g id="Calque_1-2"><path class="cls-3" d="m35,79.65c0-17.32,14.04-31.36,31.36-31.36,8.08,0,15.45,3.06,21.01,8.07-9.84,2.47-18.19,10.81-18.19,23.07s8.53,20.86,18.51,23.22c-5.59,5.19-13.09,8.37-21.33,8.37-17.32,0-31.36-14.04-31.36-31.36Z"/><path class="cls-2" d="m92.08,61.7c3.56,5.08,5.64,11.27,5.64,17.94s-1.99,12.57-5.39,17.59c-8.11-.56-16.1-6.96-16.1-17.81s7.83-17.05,15.85-17.72Z"/><path class="cls-4" d="m154.79,86.12c0-11.3-9-17.06-15.98-17.06-4.46,0-8.06,1.22-10.08,3.38l-.22-2.59h-5.62v49.24h6.55v-18c1.65,1.08,4.61,2.16,8.13,2.16,9.72,0,17.21-7.05,17.21-17.13Zm-6.62,0c0,6.84-4.75,11.37-10.58,11.37-3.45,0-6.4-1.37-8.13-3.02v-16.34c1.73-1.94,4.61-3.31,8.13-3.31,5.83,0,10.58,4.53,10.58,11.3Z"/><path class="cls-4" d="m182.1,69.85h-11.52v-10.01l-6.48,3.38v6.62h-6.41v5.25h6.41v17.93c0,6.48,4.75,9.93,10.65,9.93,1.3,0,2.23-.07,2.95-.29l1.3-5.83c-1.01.36-2.23.5-3.6.5-2.66,0-4.82-1.44-4.82-4.1v-18.14h10.37l1.15-5.25Z"/><path class="cls-4" d="m195.53,59.63c0-1.37-2.66-4.03-4.03-4.03-1.3,0-3.96,2.66-3.96,4.03,0,1.29,2.66,3.96,3.96,3.96,1.37,0,4.03-2.67,4.03-3.96Zm-.72,42.83v-32.61h-6.62v32.61h6.62Z"/><path class="cls-4" d="m229.12,71.5c-2.73-1.51-6.12-2.45-10.43-2.45-8.93,0-17.71,6.41-17.71,17.13s8.78,17.06,17.71,17.06c3.24,0,6.19-.58,8.56-1.65l1.37-6.41c-3.67,1.73-6.34,2.3-9.36,2.3-5.97,0-11.66-4.32-11.66-11.3s5.54-11.37,11.52-11.37c3.17,0,5.83.58,8.78,2.45l1.22-5.76Z"/><path class="cls-4" d="m306.6,86.19c0-10.15-7.56-17.13-17.28-17.13s-17.35,6.98-17.35,17.13,7.63,17.06,17.35,17.06,17.28-6.98,17.28-17.06Zm-6.62,0c0,6.77-4.97,11.3-10.66,11.3s-10.73-4.53-10.73-11.3,4.97-11.37,10.73-11.37,10.66,4.53,10.66,11.37Z"/><path class="cls-4" d="m345.34,86.19c0-10.15-7.56-17.13-17.28-17.13s-17.35,6.98-17.35,17.13,7.63,17.06,17.35,17.06,17.28-6.98,17.28-17.06Zm-6.62,0c0,6.77-4.97,11.3-10.66,11.3s-10.73-4.53-10.73-11.3,4.97-11.37,10.73-11.37,10.66,4.53,10.66,11.37Z"/><path class="cls-4" d="m384.07,86.19c0-10.15-7.56-17.13-17.28-17.13s-17.35,6.98-17.35,17.13,7.63,17.06,17.35,17.06,17.28-6.98,17.28-17.06Zm-6.62,0c0,6.77-4.97,11.3-10.65,11.3s-10.73-4.53-10.73-11.3,4.97-11.37,10.73-11.37,10.65,4.53,10.65,11.37Z"/><path d="m268.06,96.76v5.7h-27.49v-1.62c3.66-3.86,18.69-19.35,18.69-28,0-4.97-3.13-7.3-7.18-7.3-3.53,0-6.01,1.29-8.87,3.18l-1.39-5.86c3.19-2.08,6.43-3.15,10.26-3.15,7.92,0,13.78,4.65,13.78,13.33,0,7.8-9.01,18.82-13.83,23.72h16.03Z"/><path class="cls-4" d="m117.84,79.42c0-14.76-12.09-23.83-24.33-23.83s-24.33,9.07-24.33,23.83,12.09,23.9,24.33,23.9,24.33-9,24.33-23.9Zm-7.06,0c0,11.37-8.93,17.85-17.28,17.85s-17.28-6.48-17.28-17.85,8.78-17.78,17.28-17.78,17.28,6.41,17.28,17.78Z"/><rect class="cls-1" width="419.07" height="159.07"/></g></svg>