<?xml version="1.0" encoding="UTF-8"?><svg id="Calque_2" xmlns="http://www.w3.org/2000/svg" viewBox="0 0 419.9 421.27"><defs><style>.cls-1{stroke-width:3.93px;}.cls-1,.cls-2,.cls-3{fill:#fff;stroke:#000;stroke-miterlimit:10;}.cls-2{stroke-width:4px;}.cls-3{stroke-width:4.27px;}</style></defs><g id="Calque_1-2"><rect class="cls-2" x="2.14" y="85.63" width="320" height="250"/><polygon class="cls-3" points="212.14 3.13 212.14 418.13 2.14 335.63 2.14 85.63 212.14 3.13"/><circle class="cls-1" cx="322.14" cy="290.63" r="15"/><circle class="cls-1" cx="362.14" cy="290.63" r="15"/><circle class="cls-1" cx="282.14" cy="290.63" r="15"/><polygon class="cls-1" points="261.67 325.63 227.14 290.63 261.67 255.63 270.14 264.21 244.07 290.63 270.14 317.06 261.67 325.63"/><polygon class="cls-1" points="382.6 255.63 417.14 290.63 382.6 325.63 374.14 317.06 400.21 290.63 374.14 264.21 382.6 255.63"/><rect class="cls-2" x="2.14" y="85.63" width="320" height="250"/><polygon class="cls-3" points="212.14 3.13 212.14 418.13 2.14 335.63 2.14 85.63 212.14 3.13"/><circle class="cls-1" cx="322.14" cy="290.63" r="15"/><circle class="cls-1" cx="362.14" cy="290.63" r="15"/><circle class="cls-1" cx="282.14" cy="290.63" r="15"/><polygon class="cls-1" points="261.67 325.63 227.14 290.63 261.67 255.63 270.14 264.21 244.07 290.63 270.14 317.06 261.67 325.63"/><polygon class="cls-1" points="382.6 255.63 417.14 290.63 382.6 325.63 374.14 317.06 400.21 290.63 374.14 264.21 382.6 255.63"/></g></svg>