<svg width="79" height="49" viewBox="0 0 79 49" fill="none" xmlns="http://www.w3.org/2000/svg">
  <path d="m9.63,0h2.65v30.23h-3.26C7.31,24.27,3.04,7.18,2.42,4.59h-.04c.19,3.52.29,9.33.29,14.61v11.02H0V0h3.37c1.68,5.72,5.89,22.24,6.41,24.83h.07c-.16-4.01-.22-9.1-.22-13.86V0Zm12.88,0l5.04,30.23h-2.92l-1.59-9.7s-.03-.18-.07-.48h-4.9c-.04.3-.07.48-.07.48l-1.49,9.7h-2.82L18.52,0h3.99Zm.09,17.49c-.67-4.62-1.87-13.06-2.06-14.95h-.12c-.07,1.61-1.3,10.26-1.98,14.95h4.16Zm7.18,12.74h2.79V2.58h4.71V0h-12.25v2.58h4.75v27.65Zm17.55,0h2.79V0h-2.79v12.75h-6.39V0h-2.79v30.23h2.79v-14.92h6.39v14.92Zm6.97,0h-2.82L56.3,0h3.99l5.04,30.23h-2.92l-1.59-9.7s-.03-.18-.07-.48h-4.96c-.81,5.51-1.5,10.18-1.5,10.18Zm1.88-12.74h4.21c-.67-4.62-1.87-13.06-2.06-14.95h-.12c-.05,1.13-1.06,8.23-2.03,14.95Zm13.12,1.71c0-5.29-.1-11.09-.29-14.61h.04c.62,2.59,4.89,19.67,6.6,25.64h3.26V0h-2.65v10.97c0,4.76.06,9.84.22,13.86h-.07c-.52-2.59-4.73-19.1-6.41-24.83h-3.37v30.23h2.67v-11.02ZM8.22,43.41c.46.18,1.66.62,1.66,2.63v.56c0,.77-.01,1.63.14,2.16h-2.79c-.19-.49-.21-1.15-.21-2.34v-.37c0-1.13-.42-1.6-2.05-1.6h-2.28v4.31H0v-11.19h6.1c2.58,0,4.06,1.27,4.06,3.2,0,1.44-.84,2.3-1.95,2.65Zm-.83-2.42c0-.88-.59-1.39-1.87-1.39h-2.83v2.81h2.8c1.32,0,1.89-.48,1.89-1.42Zm13.13-3.42l4.75,11.19h-2.94l-1.04-2.54h-4.99l-.98,2.54h-2.8l4.51-11.19h3.49Zm0,6.47c-1.04-2.56-1.55-3.87-1.82-4.73h-.02c-.25.84-.85,2.54-1.69,4.73h3.52Zm17.87,1.39c0,2.1-1.61,3.33-4.36,3.33h-6.1v-11.19h6.2c2.68,0,3.85,1.3,3.85,2.88,0,1.3-.81,2.07-1.67,2.39,1.09.34,2.08,1.17,2.08,2.59Zm-7.78-3.48h2.96c1.22,0,1.61-.48,1.61-1.16,0-.84-.64-1.19-1.58-1.19h-2.98v2.35Zm4.92,3.37c0-.89-.61-1.35-1.79-1.35h-3.12v2.77h3.07c1.05,0,1.84-.31,1.84-1.41Zm9.1-1.29h6.26v-2.17h-6.26v-2.12h6.59v-2.17h-9.31v11.19h9.36l.31-2.17h-6.96v-2.55Zm17.12-6.47l4.75,11.19h-2.94l-1.04-2.54h-4.99l-.98,2.54h-2.8l4.51-11.19h3.49Zm0,6.47c-1.04-2.56-1.55-3.87-1.82-4.73h-.02c-.25.84-.85,2.54-1.69,4.73h3.52Zm14.54-6.47v6.33c0,2.35-.98,2.98-2.45,2.98-1.38,0-2.63-.6-2.63-2.98v-6.33h-2.72v6.48c0,3.47,2.05,4.95,5.27,4.95s5.24-1.62,5.24-5.01v-6.42h-2.72Z" fill="currentColor"/>
</svg>
