<?xml version="1.0" encoding="UTF-8"?><svg id="Calque_2" xmlns="http://www.w3.org/2000/svg" viewBox="0 0 32 32"><g id="Calque_1-2"><path d="m29.42,0H2.58C1.16,0,0,1.16,0,2.58v26.84c0,1.42,1.16,2.58,2.58,2.58h26.84c1.42,0,2.58-1.16,2.58-2.58V2.58c0-1.42-1.16-2.58-2.58-2.58Zm0,29.42H2.58V2.58s26.84,0,26.84,0v26.84Zm-18.71-4.31v-12.2h-4.05v12.2h4.05Zm-2.03-13.86c1.41,0,2.29-.94,2.29-2.11-.03-1.2-.88-2.11-2.27-2.11s-2.29.91-2.29,2.11.88,2.11,2.24,2.11h.03Zm4.27,13.86h4.05v-6.81c0-.36.03-.73.13-.99.29-.73.96-1.48,2.08-1.48,1.47,0,2.05,1.12,2.05,2.76v6.53h4.05v-6.99c0-3.75-2-5.49-4.67-5.49-2.19,0-3.15,1.22-3.68,2.06h.03v-1.77h-4.05c.05,1.14,0,12.2,0,12.2h0Z"/></g></svg>