<?xml version="1.0" encoding="UTF-8"?><svg id="Calque_2" xmlns="http://www.w3.org/2000/svg" viewBox="0 0 440 159.07"><defs><style>.cls-1{fill:none;}</style></defs><g id="Calque_1-2"><polygon points="104.12 51.93 91.81 51.93 91.81 107.42 122.31 107.42 122.31 97.44 104.12 97.44 104.12 51.93"/><rect x="136.89" y="51.93" width="12.3" height="55.5"/><path d="m287.19,89.42l6.4,18h13.11l-4.77-12.66c-4.11-1.77-9.09-3.66-14.74-5.34Z"/><path d="m187.04,74.63l-3.93-1.18c-2.88-.93-7.7-2.49-7.7-6.93,0-1.96,1.02-3.69,2.87-4.87,1.42-.9,3.31-1.44,5.07-1.44,3.26,0,6.64,1.11,9.57,3.13l4.61-8.99c-4.86-2.45-11.08-3.97-16.35-3.97s-10.12,1.76-13.45,4.95c-3.43,3.28-5.24,7.84-5.24,13.2,0,10.38,5.61,12.51,14.75,15.11l.48.14c3.66,1.03,9.77,2.76,9.77,7.9s-4.56,7.32-8.79,7.32-8.62-1.71-13.03-5.24l-5.07,9.53c5.65,3.67,12.25,5.69,18.64,5.69s11.71-1.83,15.64-5.16c3.67-3.12,5.53-8.04,5.53-14.62,0-4.02-1.22-7.16-3.72-9.59-2.16-2.09-5.23-3.68-9.65-4.99Z"/><path d="m219.43,82.41c6.1-2.54,12.36-4.54,18.74-5.97-1.41-.66-3.03-1.26-4.89-1.81l-3.93-1.18c-2.88-.93-7.7-2.5-7.7-6.93,0-1.96,1.02-3.69,2.87-4.87,1.42-.91,3.31-1.44,5.07-1.44,3.26,0,6.63,1.11,9.57,3.13l4.61-8.99c-4.86-2.45-11.08-3.97-16.35-3.97s-10.11,1.76-13.45,4.96c-3.43,3.28-5.24,7.84-5.24,13.2,0,8.75,3.98,11.63,10.7,13.88Z"/><path d="m241.46,85.08c-3.46.42-6.86,1.03-10.21,1.81.52.41.99.87,1.37,1.39.69.93,1.11,2.04,1.11,3.39,0,5.03-4.56,7.32-8.79,7.32-2.86,0-5.68-.74-8.53-2.24-1.49-.79-2.99-1.78-4.51-2.99l-4.88,9.18-.18.35c4.39,2.85,9.41,4.76,14.34,5.45.6.08,1.19.15,1.78.21.83.02,1.4.02,1.79.02h.39c.11,0,.21,0,.34,0,6.17,0,11.73-1.82,15.63-5.14,2.1-1.78,3.6-4.14,4.5-7.07.68-2.2,1.03-4.72,1.03-7.55,0-1.67-.21-3.19-.64-4.56-1.53.11-3.05.26-4.56.45Z"/><path d="m336.31,62.22c4.4,0,8.68,1.54,11.88,4.25v-13.61c-4.32-1.69-8.28-2.48-12.42-2.48-7.77,0-15.69,3.37-21.19,9.01-.29.29-.57.6-.84.91-4.04,4.64-6.49,10.41-7.07,16.6-.09.94-.14,1.9-.14,2.85,0,.45.01.9.03,1.34.01.29.02.58.04.86.02.28.04.57.06.85-3.49-1.22-6.97-2.29-10.45-3.2-4.53-1.21-9.04-2.16-13.53-2.86-2.59-.41-5.17-.73-7.74-.97l.27-.72.31-.82,3.01-7.9.23-.61.19.55.11.32h0l3,8.46c4.47.66,8.95,1.58,13.45,2.74l-.77-2.05-8.92-23.69-.04-.12h-14.59l-8.35,21.71-.33.84-.29.75c-7.43.08-14.75.87-21.92,2.36-6.31,1.31-12.49,3.16-18.52,5.56-6.58,2.61-12.97,5.86-19.14,9.76-.15,1.96-.53,3.44-.94,4.66,9.27-5.8,18.64-9.55,27.72-11.81,5.46-1.36,10.82-2.19,16-2.61,2.86-.23,5.66-.34,8.4-.34,1.84,0,3.66.05,5.43.14l-.28.74-.3.78-3.18,8.26-5.65,14.69h13.04l6.68-17.55,1.57-4.12.28-.75.29-.75c2.34.37,4.59.81,6.72,1.27,2.82.62,5.52,1.31,8.1,2.05,5.54,1.59,10.47,3.41,14.62,5.14,5.34,2.22,9.39,4.3,11.77,5.62,0,0,0,0,.01,0,.09.12.2.24.31.36.51.57,1.05,1.12,1.61,1.65.01.01.02.02.03.02.13.13.26.25.4.37.06.06.13.12.19.17,5.57,4.99,11.96,7.74,18.5,7.96h2.26s2.25,0,2.25,0c3.27-.29,6.27-1.2,9.7-2.25v-13.73c-3.33,2.7-7.53,4.22-11.65,4.22-6.85,0-12.31-3.25-15.12-8.5-.16-.29-.32-.59-.45-.9-.16-.35-.31-.7-.45-1.07-.78-2.05-1.2-4.35-1.2-6.83,0-10.21,7.15-17.61,16.99-17.61Z"/><rect class="cls-1" width="440" height="159.07"/></g></svg>