<?xml version="1.0" encoding="UTF-8"?><svg id="Calque_2" xmlns="http://www.w3.org/2000/svg" viewBox="0 0 440 159.07"><defs><style>.cls-1{fill:none;}.cls-2{fill-rule:evenodd;}</style></defs><g id="Calque_1-2"><path d="m30.35,29.24c.48-.48,21.61,19.9,47.21,45.51,25.59,25.61,45.96,46.77,45.48,47.25-.48.48-21.61-19.9-47.21-45.51C50.23,50.87,29.87,29.72,30.35,29.24Z"/><path d="m21.63,39.08c1.08-1.08,22.45,18.54,47.73,43.84,25.28,25.3,44.89,46.69,43.81,47.77-1.08,1.08-22.45-18.55-47.73-43.84-25.28-25.3-44.89-46.69-43.81-47.77Z"/><path d="m42.71,19.96c.18-.18,20.33,19.69,45,44.39,24.67,24.69,44.53,44.86,44.35,45.04-.18.18-20.33-19.69-45-44.39-24.67-24.69-44.53-44.86-44.35-45.04Z"/><path d="m57.9,13.94c.54-.54,19.01,17.05,41.24,39.3,22.23,22.25,39.81,40.73,39.27,41.27-.54.54-19-17.05-41.24-39.3C74.94,32.96,57.36,14.49,57.9,13.94Z"/><path d="m76.09,11.92c1.18-1.18,16.58,12.33,34.41,30.17,17.83,17.84,31.32,33.26,30.15,34.44-1.18,1.18-16.58-12.33-34.41-30.17-17.83-17.84-31.32-33.26-30.15-34.44Z"/><path d="m104.32,19.74c1.27-1.27,8.8,4.21,16.82,12.24,8.02,8.03,13.5,15.57,12.23,16.84-1.27,1.27-8.8-4.21-16.82-12.24-8.02-8.03-13.5-15.57-12.23-16.84Z"/><path d="m14.58,52.04c1.72-1.72,22.31,16.1,45.99,39.8,23.68,23.7,41.48,44.3,39.76,46.02-1.72,1.72-22.31-16.1-45.99-39.8C30.67,74.37,12.87,53.76,14.58,52.04Z"/><path d="m10.52,70.77c2.37-2.37,20.23,11.67,39.9,31.35,19.67,19.68,33.69,37.56,31.32,39.93-2.37,2.37-20.23-11.67-39.9-31.35-19.67-19.68-33.69-37.56-31.32-39.93Z"/><path d="m15.11,100.88c2.26-2.26,12.28,4.09,22.37,14.18,10.09,10.1,16.43,20.12,14.17,22.38-2.26,2.26-12.28-4.09-22.37-14.18-10.09-10.1-16.43-20.12-14.17-22.38Z"/><path class="cls-2" d="m419.13,51.37c4.06,0,7.36,1.21,9.8,3.6l.5.49-2.95,3.34-.55-.56c-1.7-1.74-4.2-2.7-7.04-2.7s-4.64,1.28-4.64,3.12c0,1.71,2.14,2.37,5.67,3.26l.12.03c4.31,1.07,9.68,2.4,9.68,8.11,0,3.81-2.72,7.88-10.37,7.88-5.5,0-8.78-2.22-10.56-4.09l-.46-.48,2.87-3.43.56.58c1.17,1.21,3.72,3.24,7.71,3.24s5.42-1.78,5.42-3.45c0-2.18-2.29-2.92-6.05-3.87l-.11-.03c-.08-.02-.15-.04-.23-.06l-.46-.11c-4.01-.99-8.62-2.39-8.62-7.41,0-4.33,4.08-7.48,9.7-7.48Zm-36.15.58l7.76,10.32,7.72-10.32h5.74l-11.23,15.02v10.14h-4.5v-10.14l-11.23-15.02h5.74Zm-211.03-.08l9.1,15.82,8.99-15.82h4.45v25.11h-4.71v-14.88l-8.73,14.88-8.8-14.88v14.88h-4.64v-25.11h4.35Zm53.28,0v4.76h-15.26v4.57h8.73v4.87h-8.73v6.15h15.26v4.76h-19.98v-25.11h19.98Zm47.02,0v25.11h-4.72v-25.11h4.72Zm23.67,0l11.77,25.11h-5.24l-2.52-5.47h-12.66l-2.6,5.47h-5.24l11.77-25.11h4.71Zm74.87,0v4.76h-15.26v4.57h8.73v4.87h-8.73v6.15h15.26v4.76h-19.98v-25.11h19.98Zm-125.03,0c3.44,0,6.38,1.22,8.82,3.67,2.44,2.45,3.66,5.4,3.66,8.85s-1.22,6.44-3.66,8.9c-2.44,2.46-5.38,3.69-8.82,3.69h-10.92v-25.11h10.92Zm74.41,0v17.9l14.72-17.9h5.52l-6.98,8.58,9.51,16.41h-5.3l-7.08-12.41-9.75,12.41h-5.27v-24.99h4.64Zm-74.41,4.76h-6.2v15.59h6.2c2.13,0,3.94-.76,5.44-2.29,1.5-1.52,2.25-3.37,2.25-5.55s-.75-3.95-2.25-5.47c-1.5-1.52-3.31-2.29-5.44-2.29Zm47.82,1.31l-4.12,8.73h8.21l-4.08-8.73Z"/><path d="m176.79,100.44h-9.19v-12.31h8.98v2.2h-6.74v2.3h3.67v2.24h-3.67v3.36h6.94v2.2Zm14.3,0h-2.59l-2.76-4.35-2.72,4.35h-2.59l4.02-6.47-3.67-5.84h2.63l2.33,3.77,2.33-3.77h2.63l-3.62,5.84,4,6.47Zm9.35-4.83h-3.53v4.83h-2.2v-12.31h5.66c.81,0,1.51.17,2.11.51,1.26.73,1.89,1.82,1.89,3.25,0,1.54-.63,2.65-1.89,3.33-.6.26-1.28.39-2.04.39Zm1.73-3.71c0-.48-.16-.86-.48-1.14-.32-.28-.75-.42-1.29-.42h-3.49v3.07h3.49c.54,0,.97-.13,1.29-.4.32-.28.48-.65.48-1.1Zm15.49,8.54h-9.19v-12.31h8.98v2.2h-6.74v2.3h3.67v2.24h-3.67v3.36h6.94v2.2Zm13.93,0h-2.46l-1.98-4.83h-3.27v4.83h-2.2v-12.31h5.66c.81,0,1.51.17,2.11.51,1.26.73,1.89,1.82,1.89,3.25s-.66,2.55-1.98,3.27l2.24,5.27Zm-2.46-8.54c0-.48-.16-.86-.48-1.14-.32-.28-.75-.42-1.29-.42h-3.49v3.07h3.49c.54,0,.97-.13,1.29-.4.32-.28.48-.65.48-1.1Zm8.98,8.54h-2.2v-12.31h2.2v12.31Zm13.61,0h-9.19v-12.31h8.98v2.2h-6.74v2.3h3.67v2.24h-3.67v3.36h6.94v2.2Zm13.95,0h-1.89l-5.88-8.3v8.3h-2.15v-12.31h2.15l5.66,8.21v-8.21h2.11v12.31Zm13.89-2.5c-1.14,1.81-2.73,2.72-4.76,2.72-1.6,0-2.88-.58-3.82-1.75-.93-1.16-1.4-2.71-1.4-4.65s.47-3.49,1.4-4.63c.93-1.14,2.2-1.71,3.82-1.71,2.05,0,3.63.91,4.76,2.72l-2,.99c-.64-.98-1.56-1.49-2.76-1.52-.93.02-1.66.44-2.19,1.25-.53.8-.79,1.75-.79,2.87,0,1.32.27,2.35.81,3.09.55.72,1.29,1.08,2.2,1.08,1.22-.01,2.11-.51,2.66-1.49l2.06,1.03Zm13.2,2.5h-9.19v-12.31h8.98v2.2h-6.74v2.3h3.67v2.24h-3.67v3.36h6.94v2.2Z"/><rect class="cls-1" width="440" height="159.07"/></g></svg>