<?xml version="1.0" encoding="UTF-8"?><svg id="Calque_2" xmlns="http://www.w3.org/2000/svg" viewBox="0 0 320 320"><defs><style>.cls-1{fill:#001e36;}.cls-2{fill:#31a8ff;}</style></defs><g id="Calque_1-2"><rect class="cls-1" width="320" height="320" rx="60" ry="60"/><path class="cls-2" d="m72,222.8V85.6c0-.93.4-1.47,1.33-1.47,2.27,0,4.4,0,7.47-.13,3.2-.13,6.53-.13,10.13-.27,3.6-.13,7.47-.13,11.6-.27,4.13-.13,8.13-.13,12.13-.13,10.93,0,20,1.33,27.47,4.13,6.67,2.27,12.8,6,17.87,10.93,4.27,4.27,7.6,9.47,9.73,15.2,2,5.6,3.07,11.33,3.07,17.33,0,11.47-2.67,20.93-8,28.4s-12.8,13.07-21.47,16.27c-9.07,3.33-19.07,4.53-30,4.53-3.2,0-5.33,0-6.67-.13s-3.2-.13-5.73-.13v42.8c.13.93-.53,1.73-1.47,1.87h-25.87c-1.07,0-1.6-.53-1.6-1.73Zm29.07-112.93v44.8c1.87.13,3.6.27,5.2.27h7.07c5.2,0,10.4-.8,15.33-2.4,4.27-1.2,8-3.73,10.93-7.07,2.8-3.33,4.13-7.87,4.13-13.73.13-4.13-.93-8.27-3.07-11.87-2.27-3.47-5.47-6.13-9.33-7.6-4.93-2-10.27-2.8-15.73-2.67-3.47,0-6.53,0-9.07.13-2.67-.13-4.53,0-5.47.13h0Zm154.93,36.67c-4-2.13-8.27-3.6-12.8-4.53-4.93-1.07-9.87-1.73-14.93-1.73-2.67-.13-5.47.27-8,.93-1.73.4-3.2,1.33-4.13,2.67-.67,1.07-1.07,2.4-1.07,3.6s.53,2.4,1.33,3.47c1.2,1.47,2.8,2.67,4.53,3.6,3.07,1.6,6.27,3.07,9.47,4.4,7.2,2.4,14.13,5.73,20.53,9.73,4.4,2.8,8,6.53,10.53,11.07,2.13,4.27,3.2,8.93,3.07,13.73.13,6.27-1.73,12.53-5.2,17.73-3.73,5.33-8.93,9.47-14.93,11.87-6.53,2.8-14.53,4.27-24.13,4.27-6.13,0-12.13-.53-18.13-1.73-4.67-.8-9.33-2.27-13.6-4.27-.93-.53-1.6-1.47-1.47-2.53v-23.2c0-.4.13-.93.53-1.2.4-.27.8-.13,1.2.13,5.2,3.07,10.67,5.2,16.53,6.53,5.07,1.33,10.4,2,15.73,2s8.67-.67,11.07-1.87c2.13-.93,3.6-3.2,3.6-5.6,0-1.87-1.07-3.6-3.2-5.33-2.13-1.73-6.53-3.73-13.07-6.27-6.8-2.4-13.07-5.6-18.93-9.6-4.13-2.93-7.6-6.8-10.13-11.33-2.13-4.27-3.2-8.93-3.07-13.6,0-5.73,1.6-11.2,4.53-16.13,3.33-5.33,8.27-9.6,14-12.27,6.27-3.2,14.13-4.67,23.6-4.67,5.47,0,11.07.4,16.53,1.2,4,.53,7.87,1.6,11.47,3.07.53.13,1.07.67,1.33,1.2.13.53.27,1.07.27,1.6v21.73c0,.53-.27,1.07-.67,1.33-1.2.27-1.87.27-2.4,0Z"/></g></svg>