<?xml version="1.0" encoding="UTF-8"?><svg id="Calque_2" xmlns="http://www.w3.org/2000/svg" viewBox="0 0 440 159.07"><defs><style>.cls-1{fill:none;}.cls-2{fill:#fff;}</style></defs><g id="Calque_1-2"><path d="m59.87,48.28v62.5h62.5v-62.5h-62.5Zm51.46,33.13h-40.63v-3.76h40.63v3.76Z"/><rect class="cls-2" x="70.7" y="77.65" width="40.63" height="3.76"/><g id="g86"><path id="path56" d="m164.12,55.35c-3.31-1.33-7.07-2.43-10.16-2.43-4.64,0-7.07,1.1-7.07,2.87,0,5.08,20.98,1.1,20.98,12.15,0,4.64-4.2,8.17-12.81,8.17-5.08,0-9.06-1.1-13.69-3.53l1.99-4.2c3.98,2.21,7.73,3.31,11.71,3.31,5.08,0,7.73-1.55,7.73-3.75,0-5.74-20.98-1.33-20.98-11.71,0-4.42,4.2-7.51,11.93-7.51,4.64,0,8.39,1.1,12.15,2.87l-1.77,3.75Z"/><path id="path58" d="m187.53,76.11c-8.39,0-15.24-5.52-15.24-13.91s6.85-13.91,15.24-13.91,15.24,5.74,15.24,13.91c-.22,8.39-6.85,13.91-15.24,13.91m0-23.41c-6.18,0-10.16,4.2-10.16,9.5s3.98,9.5,10.16,9.5,10.16-3.98,10.16-9.5-3.98-9.5-10.16-9.5"/><path id="path60" d="m222.65,76.11c-8.83,0-15.46-5.52-15.46-13.91s6.63-13.91,15.46-13.91c5.08,0,8.83,1.55,12.15,3.98l-2.65,3.75c-2.43-1.77-5.52-3.31-9.5-3.31-6.41,0-10.38,3.98-10.38,9.28s3.98,9.28,10.38,9.28c3.98,0,7.29-1.33,9.5-3.09l2.65,3.75c-3.09,2.65-7.07,4.2-12.15,4.2"/><path id="rect62" d="m240.32,49.17h4.86v26.28h-4.86v-26.28Z"/><path id="polygon64" d="m252.25,75.23v-26.06h23.85v4.2h-18.99v6.41h14.8v4.42h-14.8v6.85h19.88v4.2h-24.74Z"/><path id="polygon66" d="m279.63,53.36v-4.2h26.28v4.2h-10.82v21.87h-4.86v-21.87h-10.6Z"/><path id="polygon68" d="m309.67,75.23v-26.06h23.85v4.2h-18.99v6.41h14.8v4.42h-14.8v6.85h19.88v4.2h-24.74Z"/><path id="path70" d="m156.39,106.37c2.65,0,5.3-.66,7.51-1.55v-7.51h4.64v10.16c-3.31,2.21-7.95,3.53-12.37,3.53-8.83,0-15.46-5.52-15.46-13.91s6.63-13.91,15.46-13.91c5.08,0,8.83,1.33,12.15,3.98l-2.65,3.75c-2.43-1.77-5.52-3.09-9.5-3.09-6.41-.22-10.38,3.98-10.38,9.28s3.98,9.28,10.6,9.28"/><path id="polygon72" d="m174.94,110.13v-26.06h23.85v4.2h-18.99v6.41h14.8v4.42h-14.8v6.85h19.88v4.2h-24.74Z"/><path id="path74" d="m209.18,110.13h-4.86v-26.28h4.86l17.01,19.66h.22c-.22-4.86-.22-9.06-.22-12.81v-6.85h4.64v26.28h-4.86l-17.01-19.66c.22,3.98.22,10.6.22,12.81v6.85Z"/><path id="polygon76" d="m237.67,110.13v-26.06h23.85v4.2h-18.99v6.41h14.8v4.42h-14.8v6.85h19.88v4.2h-24.74Z"/><path id="path78" d="m280.3,100.63h-7.73v9.72h-4.86v-26.28h16.79c5.52,0,9.06,3.53,9.06,8.39s-3.31,7.51-7.51,8.17l7.73,9.72h-6.18l-7.29-9.72Zm3.53-4.42c3.09,0,4.86-1.55,4.86-3.75,0-2.43-1.55-3.98-4.2-3.98h-11.93v7.95h11.26v-.22Z"/><path id="path80" d="m303.71,103.94l-3.09,6.41h-5.3l12.81-26.28h5.08l12.81,26.28h-5.3l-3.09-6.41h-13.91Zm1.99-4.42h10.16l-5.08-10.6-5.08,10.6Z"/><path id="polygon82" d="m329.77,110.13v-26.06h4.86v21.87h17.45v4.2h-22.31Z"/><path id="polygon84" d="m355.39,110.13v-26.06h23.85v4.2h-18.99v6.41h14.8v4.42h-14.8v6.85h19.88v4.2h-24.74Z"/></g><rect class="cls-1" width="440" height="159.07"/></g></svg>