<?xml version="1.0" encoding="UTF-8"?><svg id="Calque_2" xmlns="http://www.w3.org/2000/svg" viewBox="0 0 440 159.07"><defs><style>.cls-1{fill:none;}</style></defs><g id="Calque_1-2"><path d="m290.53,56.79c0-1.57,1.28-2.73,2.78-2.73s2.77,1.16,2.77,2.73-1.28,2.75-2.77,2.75-2.78-1.16-2.78-2.75Zm2.78,2.29c1.24,0,2.22-.97,2.22-2.29s-.98-2.28-2.22-2.28-2.23.98-2.23,2.28.98,2.29,2.23,2.29Zm-.58-.7h-.48v-3.16h1.2c.75,0,1.12.27,1.12.9,0,.57-.35.81-.82.87l.9,1.39h-.54l-.83-1.37h-.55v1.37Zm.57-1.78c.41,0,.77-.03.77-.51,0-.39-.36-.46-.69-.46h-.65v.98h.57Zm-181.17-4.4c1.09,4.19,2.05,8.42,2.84,12.74.13.87-.17,1.48-.7,2.05-.44.52-.96.74-1.57.83-.87,0-1.66-.26-2.27-.96-1.83-2.71-2.4-5.94-4.63-8.38-.57-.44-1.35-.74-2.05-.39l-.52.52.39,39.05c.17,1.22,1.31,2.23,2.49,2.44.96-.26,1.7-1.26,1.88-2.18l.13-2.18-.22-19.02c-.35-1.4-2.18-1.44-2.44-2.75.22-.74,1.05-1.26,1.7-1.57,2.49-1.09,5.11-1.79,7.51-3.05.74-.04,1.66-.17,2.31.22l.44.61.26,27.32c.22.92.48,2.18,1.66,2.4.48.39.35,1.09.09,1.57-.57.87-1.61.92-2.44,1h-9.08c-.74.04-1.31-.44-1.83-.92-1.96,1.53-5.32.92-7.59,1.05-2.66-.31-5.98.74-8.34-.87-.39-.3-.31-.92-.26-1.26.44-.87,1.75-.57,2.01-1.66l.39-1.22-.13-29.67-.17-9.29c-.31-.44-.79-.65-1.35-.61-1,.09-1.62,1.14-2.14,1.88-1.18,2.09-1.96,4.41-3.01,6.55-.35.74-.96,1.22-1.7,1.53-1.05.35-2.05-.09-2.75-.83-1.22-1.53-.13-3.53,0-5.19l2.05-9.42c.26-.48.52-1.13,1.09-1.26,1.66-.61,2.01,1.7,3.58,1.26l20.34-.17c1.22-.09,1.96-2.01,3.4-1.09l.65.96Zm122.6.09c-2.75,2.14-6.68,1.88-9.03,4.62-.79,1.75,1.79,1.83,1.7,3.45.13.79.31,1.7.17,2.4l.09.04.13,7.37-.17.39c-.7-1.18-2.14-1.26-3.4-1.35-3.32-.22-5.46,2.75-7.11,5.28-.13.04-.39.13-.48-.04-.44-1.57-.04-3.27-.31-4.71-.57-.92-1.57-.92-2.58-.78-2.66,1.22-5.5,2.09-8.2,3.27l-1.18,1.05c-.22,1.79,2.27,1.66,2.36,3.32l.17,19.68-.04,2.14c-.26.92-1.26.78-1.83,1.35-.35.39-.35,1-.18,1.44.22.57.74,1.05,1.35,1.18l9.38.09c.79-.09,1.79-.05,2.4-.65.35-.44.61-.96.61-1.57-.17-1.31-2.05-.79-1.96-2.23.57-7.11-2.31-16.23,4.32-20.95.48-.22,1.13-.57,1.62-.09.26,1,.61,2.01,1.39,2.75.61.35,1.4.65,2.14.35,1.75-.92,1-3.14,1.66-4.71.17,1.35,0,3.4.13,4.84l.04,17.45c-.09,1.18-1.05,1.75-1.92,2.31-.26.57-.26,1.22.04,1.75.39.7,1.18.96,1.88,1.09l8.51.04c1.22,0,2.62-.17,3.1-1.44.13-.52.13-1.18-.22-1.57-1.13-.48-1.53-1.53-1.7-2.58l-.31-37.48-.13-6.46-.44-.61c-.52-.39-1.26-.61-2.01-.44Zm-68,.35c-2.49,1.35-5.41,1.48-7.55,3.53-.31.35-.48.83-.31,1.31.96.96,1.92,2.14,1.96,3.62l.39,38.88-.22.44-.3-.31c-1.35-.35-1.31-2.05-1.48-3.1.09-5.45-.61-10.6-1.4-15.71-.96-3.8-.96-8.16-4.28-10.86-1.83-1.18-4.93-1.53-6.85-.31-1,.65-1.18,2.4-2.58,2.4-.79-.83-1.18-1.88-2.23-2.49-2.14-1.01-5.5-1.35-7.46.31-1,.61-1.22,2.09-2.44,2.18-.83-.39-.52-1.48-.52-2.27-.48-1.09-1.79-.92-2.84-.87-1.4.74-2.84,1.35-4.32,1.83-1.61.74-3.54,1-4.71,2.44-.44,1.74,2.05,1.57,2.27,3.18l.22,20.29-.22,1.13c-.18.92-.96,1.53-1.75,1.92-.39.31-.26.92-.09,1.27.48.87,1.44.92,2.27,1.09,3.67-.13,6.76.35,10.39-.31.61-.39,1.13-1.05.96-1.83-.57-.79-1.88-1.18-1.83-2.49l-.17-15.18c.13-2.05-.44-4.01.52-5.76.48-.7,1.18-1.53,2.09-1.57.79.04,1.61.48,1.96,1.22l.17,21.12c-.31.83-.57,2.01-1.61,2.27-.57.26-.7.87-.52,1.4,1.44,2.05,4.84.87,6.98,1.18,1.7-.22,4.23.65,5.46-1.14.17-.39.13-.92-.13-1.27-1.09-.35-1.48-1.44-1.75-2.4l-.04-20.2.57-.92c.48-.35,1-.92,1.75-.65,1,.74,1.31,2.05,1.66,3.18.92,5.5,1.4,11.35,1.62,17.11.13,1.35-.26,2.48-.87,3.53-.52.26-1.35.61-1.22,1.4.17.78.96,1.26,1.7,1.4l6.59.09c1.66-.09,3.45.35,4.67-1,.26.35.52.83.96,1.05,1.18.35,2.14-.52,3.05-1.09.74-.87.74-2.49,2.18-2.53.61.22.7.92,1,1.35,2.44,2.49,6.37,3.19,9.86,2.23,5.72-2.09,6.02-8.38,6.55-13.57.87,5.67,3.19,12.52,9.65,13.83,3.32.44,6.9.04,9.47-2.18,1.4-2.23,2.71-4.93,2.05-7.86-.52-.96-1.44-1.48-2.44-1.7-2.53-.79-1.66,2.31-2.79,3.36-1,.92-2.53.26-3.58-.09-1.92-.31-2.71-2.44-3.32-3.97-.13-.74-.87-1.83,0-2.49,3.71-1.57,7.59-2.84,11.22-4.58.35-1,.39-2.01.39-3.19.13-4.14-2.31-7.51-5.37-10.21-2.49-1.44-6.28-1.61-8.86-.04-4.93,2.97-6.02,8.68-6.55,14.09l-.13.13c-.83-4.71-1.35-9.34-4.76-12.96-1.75-1.96-4.58-2.88-7.03-2.05-.83.09-1.57,2.01-2.23.79l-.13-16.76-.31-.79c-.79-1-2.62-.83-3.4.13Zm28.02,20.86c1.48,2.71,3.8,6.07,1.83,9.16-.96,1.18-2.4,1.44-3.58,2.14-.61.04-.74-.65-.96-1.05-.61-3.01-.79-5.76-.13-8.86.39-1.09,1.7-2.14,2.84-1.4Zm-19.9,1.4c2.01,5.98,3.1,14.27-.52,19.81-.44.3-1.05.74-1.53.44-1.61-1.57-1.75-3.84-2.23-5.93-.52-5.02-.35-9.73,1.7-14.09.3-.52.74-1.09,1.35-1.26.7-.13.87.7,1.22,1.05Zm136.95-23.21c-2.58,1.27-5.33,2.14-7.81,3.53-.83.44-1.96.04-2.75.52-2.05,2.36,1.88,2.79,2.18,4.58l.04,9.56c-.04.22-.26.35-.48.39-.87-.57-1.49-1.4-2.53-1.57-1.96-.31-3.93.09-5.32,1.44-2.92,3.18-4.58,7.2-5.06,11.52-.96,6.37-1.26,14.09,3.06,19.03,2.01,1.83,4.71,2.97,7.42,2.44,1.22-.31,1.96-1.66,3.01-2.31,1.05.31-.09,1.31.57,1.83,1.14.79,2.36-.09,3.54-.26,2.49-.87,5.02-1.66,7.37-2.97.39-.52.57-1.22.44-1.92-.09-.65-.83-.7-1.26-.87-.44-.17-.79-.61-.79-1.09l-.39-40.8-.13-1.96c-.13-.57-.61-.92-1.09-1.09Zm-8.73,26.57c1.22,5.41,1.53,11.74-1.05,16.63-.35.52-1,.48-1.48.26-2.05-1.83-2.18-4.5-2.75-6.94-.61-4.27.26-8.68,1.31-12.61.31-.61.48-1.44,1.27-1.66,1.83.65,2.09,2.75,2.7,4.32Zm-22.96-9.47c-1.57-.44-2.97.17-4.06,1.13-.61.52-.61,1.4-1.4,1.7-.57-.57-.22-1.44-.7-2.05-.66-.52-1.62-.52-2.4-.44-2.4,1.31-4.98,2.23-7.42,3.4-3.01,1.7,1.27,2.44,1.4,4.14l.22,20.55-.39,1.31c-.22.7-.96,1.22-1.62,1.31,0-.7-.17-1.53-.48-2.22-.09-.83-1-.92-1.7-.83-.44-.17-.66-.57-.74-1-.22-3.97-.39-8.16-.7-12.09-.39-3.45-.74-6.98-1.92-10.12-.96-2.09-2.97-3.53-5.19-3.8-3.4-.39-6.76-.52-9.91.52-2.18.87-4.54,2.79-4.5,5.45,0,1.66.35,3.18,1.7,4.28,1.57,1.18,4.02.74,5.54-.22,1.05-1,1.05-2.75.79-4.06-.22-.92-1.27-1-1.57-1.79.09-.35.44-.48.74-.52l2.97.26c1.05.48,1.35,1.48,1.79,2.4.43,1.48.57,3.4-.13,4.8-3.23,1.09-6.5,2.14-9.04,4.89-3.23,2.49-3.49,6.85-2.79,10.69.35,2.88,2.84,5.45,5.54,6.28,3.23,1.44,6.85.09,9.3-2.27h.79c1.31,1.09,2.44,2.23,4.06,2.58,1.4.09,2.88,0,4.06-.96.39-.35.87-.92,1.18-1.14.22.74,1,1.22,1.7,1.35,3.19.09,7.07.35,10.17-.22.52-.31,1.22-.87,1.09-1.62-.48-1.05-1.92-1.31-1.88-2.7l-.26-20.33.17-.79c.17-.48.83-.74,1.4-.57.74.39,1.22,1.18,1.48,1.88,1.75,5.89,3.14,12.22,3.06,18.5-.26,1.14-.17,2.62-1.48,3.14-.61.22-.7.92-.57,1.44.26.74,1.05,1.13,1.75,1.26,3.32,0,6.94.31,10.08-.26.61-.3,1.05-.83,1.05-1.57,0-.78-.79-.87-1.31-1.31-.44-.65-.61-1.44-.65-2.22-.35-6.33-1.27-12.65-2.31-18.81-.39-1.92-.96-3.71-2.01-5.37-1.13-1.83-2.92-3.32-4.89-4.01Zm-28.76,16.58c.31,3.75.65,7.59.52,11.17-.66.87-1.79,1.22-2.88.87-1.4-.44-1.75-1.96-2.05-3.14.09-2.97-.79-6.94,2.36-8.73.52-.52,1.66-1.05,2.05-.17Zm109.7,13.54c-1.72-.17-3.43-.34-5.13-.53l-16.24-2.53-1.15-.1h0l-3.91-.34c-.26.13-.7-.08-.78.17.13.15.27.3.41.45.22.22.45.43.68.64.09.08.17.16.26.24.62.55,1.27,1.06,1.93,1.55.09.07.18.13.27.19.05.03.09.07.14.1.09.06.18.13.27.19.13.09.27.18.4.27.15.1.31.2.47.3.1.06.2.13.3.19.13.08.26.16.39.23.11.06.22.13.33.19.42.24.85.47,1.29.68.17.08.33.16.5.24.67.31,1.36.6,2.06.86.17.06.35.13.53.19.12.04.25.08.37.12.16.05.32.1.48.15.09.03.18.06.27.08.11.03.21.06.32.09.09.03.17.05.26.07.02,0,.03.01.05.01.14.04.27.07.41.11.17.04.33.08.5.12.45.1.91.2,1.37.27.13.03.26.05.39.07.18.03.36.06.54.08.01,0,.03,0,.04,0,.18.03.37.05.55.07.19.02.37.04.56.06.37.04.75.06,1.12.09.02,0,.04,0,.06,0,.01,0,.03,0,.04,0,.13,0,.27,0,.4.01.4,0,.8.01,1.19,0,.21,0,.43,0,.64-.02.27,0,.52-.03.78-.05.66-.04,1.32-.11,1.97-.2.13-.02.26-.04.39-.06.25-.04.49-.08.73-.13.08-.02.16-.03.25-.05.12-.03.25-.05.37-.08.02,0,.03,0,.05-.01.09-.02.18-.04.27-.06.03,0,.06-.01.09-.02.09-.02.17-.04.26-.06.28-.07.55-.14.83-.21.12-.03.25-.07.37-.1.15-.05.31-.09.47-.14.15-.05.31-.1.46-.15.12-.04.24-.08.36-.12h0c.16-.06.32-.11.48-.17.08-.03.16-.06.24-.09.39-.15.78-.31,1.16-.47.2-.09.4-.18.6-.27.37-.17.73-.35,1.09-.54.09-.05.18-.1.27-.14.16-.09.33-.18.49-.27.17-.09.33-.19.5-.29.07-.05.15-.09.23-.14.05-.03.11-.07.16-.1.02-.01.05-.03.07-.04-1.83-.23-3.67-.42-5.51-.6h0Zm-1.25-5.82c-8.09-.5-16.35-1.26-24.55-.34h0c-1.12.12-2.25.28-3.38.48.04.13.08.25.15.37.22.28.45.55.69.82.03.02.06.05.08.07,1.55.07,3.09.2,4.62.35h0c8.42.85,16.6,2.7,25.15,3.42h0c1.81.15,3.61.25,5.46.28.15-.11.3-.22.45-.33.1-.07.19-.15.29-.22.1-.07.19-.15.29-.23.07-.05.13-.1.2-.16.05-.04.1-.08.15-.13.07-.05.13-.11.2-.16.3-.25.59-.5.88-.77.09-.08.19-.17.28-.26.33-.31.66-.63.97-.96.1-.11.21-.21.3-.32.1-.11.2-.22.3-.33.22-.24.43-.48.64-.73.07-.09.14-.17.21-.26.07-.09.15-.18.22-.27.1-.12.19-.23.28-.35.2-.25.39-.51.57-.77v-.17c-1.36.26-2.78.47-4.23.63-3.36.37-6.85.48-10.21.33Zm19.41-17.1v-.03c-.01-.46-.04-.91-.07-1.36-.01-.18-.03-.36-.05-.54-.02-.2-.04-.4-.07-.6-.02-.13-.03-.26-.05-.39-.04-.29-.08-.58-.13-.88-.03-.15-.05-.29-.08-.44-.13-.72-.3-1.44-.48-2.14-.88.19-1.88.41-2.93.64l-11.33,2.67,1.81-2.84,5.8-1.15,5.63-2.41c-.31-.77-.65-1.52-1.03-2.25l-6.05,2.36-3.38.85,2.53-4.65,5.92-.28c-.49-.81-1.03-1.58-1.6-2.33l-6.92-.29,2.58-4.18c-.49-.4-.99-.78-1.51-1.14l-5.72,7.74-1.39-4.11,5.48-4.69c-.55-.33-1.12-.65-1.7-.93l-5.29,2.73-2.87-5.27c-.75-.11-1.51-.18-2.28-.22l3.04,7.43-1.45.24-3.86-7.69c-.16,0-.32.01-.48.02l-3.81,6.89-2.99-5.64c-1.22.39-2.39.87-3.52,1.43l-.08,4.33-5.25-.85c-.96.8-1.86,1.67-2.7,2.6l6.37,7.06-2.17.12-5.34-5.82c-.48.62-.94,1.25-1.37,1.91l3.7,4.33-6.2.48c-.32.81-.6,1.64-.84,2.48h0c-.23.82-.43,1.65-.59,2.49-.04.2-.07.4-.1.6,0,0,0,.01,0,.02-.03.18-.06.36-.08.54-.01.05-.02.11-.02.16-.02.13-.04.25-.05.38-.02.13-.03.26-.04.38-.01.09-.02.19-.03.29-.02.19-.04.37-.05.56-.04.46-.06.91-.07,1.37,0,.23,0,.46,0,.69s0,.46,0,.69c0,.21.02.42.03.63,0,.13.01.25.02.38.01.14.02.29.03.43,0,.11.02.23.03.34.01.13.03.26.04.38s.03.26.05.38c.05.41.1.81.17,1.21.26,1.42.59,2.81,1.04,4.16.01.04.03.07.04.11.11.32.23.63.34.95.37.99.82,1.95,1.3,2.88.03.06.06.11.08.16.02.03.03.06.05.08.02.03.03.05.05.08.03.05.05.09.07.14,0,0,0,0,0,0s0,0,0,0c.03.05.05.09.08.14.51.88,1.09,1.72,1.74,2.52l3.34-.41.55-.07c11.9-1.59,24.09,1.49,35.75-.09h0c1.43-.2,2.85-.46,4.27-.82.12-.19.24-.39.36-.59.12-.2.23-.4.34-.6.1-.18.2-.36.3-.55.21-.39.4-.78.59-1.19.07-.15.14-.31.21-.47,0-.01.01-.03.02-.04,0,0,0-.02.01-.03.05-.11.09-.21.14-.32,0-.01,0-.02.01-.03.05-.12.1-.24.15-.37.03-.07.06-.14.08-.21.08-.19.15-.39.23-.58.05-.12.09-.25.13-.37.17-.49.34-.99.48-1.5.02-.08.05-.16.07-.24.11-.39.21-.78.3-1.17.05-.21.09-.42.14-.63v-.05c.05-.21.09-.43.13-.64.04-.22.07-.44.11-.66h0c.04-.23.07-.45.09-.68,0,0,0-.01,0-.02.03-.22.05-.44.07-.66.03-.34.06-.68.08-1.02.02-.34.04-.68.05-1.03v-.02c0-.23,0-.46,0-.69s0-.45,0-.67Zm-14.49-12.69l1.94-.39-2.85,4.73h-2.01l2.92-4.34Zm-2.42,7.43l-1.79,3.01-2.33.45,1.88-3.24,2.25-.23Zm-4.13-11.06v.8l-1.17,1.14-.26-.97,1.43-.97Zm1.17,3.63l.71,2.44-4.09,5.53-.39-5.06,3.76-2.92Zm-7.59-8.17l2.01,4.47-.7,4.41-2.47,1.8-1.69-5.63,2.85-5.06Zm-.42,15.24v-1.88l1.3-.66v3.12l-1.3-.58Zm-3.92-4.55l1.1,4.55-2.27-2.45,1.17-2.1Zm-3.76-10.36l1.36,3.18-1.36-.65v-2.53Zm2.14,6.16l-1.88,4.2-.26-4.85,2.14.65Zm-8.95-2.98l3.95,1.04.26,3.63-4.21-4.67Zm.78,9.29l4.34.31,1.3,1.49-3.56,3.05-4.09-1.69,2.01-3.16Zm-7,.57h3.18l-1.23,1.88-2.31-1.19.37-.69Zm-1.02,3.08l1.64.69-2.14,3.04c.07-1.24.23-2.46.48-3.65,0-.03.01-.06.02-.08Zm20.86,15.89c-6.37-.65-12.44-1.66-18.9-1.66-.44.05-.7-.18-.89-.49,0-.01-.01-.02-.02-.04-.19-.32-.29-.74-.39-1.04-.01-.06-.02-.12-.04-.17-.1-.3-.19-.61-.28-.92-.05-.19-.1-.38-.15-.57-.23-.91-.41-1.85-.53-2.81l-.05-.38c-.09-.76-.14-1.53-.15-2.3l2.42-.42,2.35-3.31,3.62,1.57-1.93,2.4,3.44-.34,6.56-5.37,1.59,1.57-6.52,3.86,5.49.06,2.78-1.81,1.6,2.42v9.76Zm21.75,2.49c-5.6-.3-10.94-.56-16.25-1.57l-.26-.65c-.14-1.24-.27-3.02-.37-4.69l-.24-4.79,8.51-2.72,1.69,2.29,1.93-.42-1.15-1.99,4.04-.91,2.54,2.96,2.9-.06-1.99-3.81,2.39-.51c.17,1.17.27,2.36.27,3.58,0,4.92-1.48,9.49-4.01,13.28Z"/><rect class="cls-1" width="440" height="159.07"/></g></svg>