<?xml version="1.0" encoding="UTF-8"?><svg id="Calque_2" xmlns="http://www.w3.org/2000/svg" viewBox="0 0 32 32"><g id="Calque_1-2"><path d="m29.42,0H2.58C1.16,0,0,1.16,0,2.58v26.84c0,1.42,1.16,2.58,2.58,2.58h26.84c1.42,0,2.58-1.16,2.58-2.58V2.58c0-1.42-1.16-2.58-2.58-2.58Zm0,29.42H2.58V2.58s26.84,0,26.84,0v26.84Zm-5.03-18.62c-.63.28-1.29.46-1.97.54.71-.42,1.25-1.1,1.51-1.9-.67.39-1.4.68-2.18.84-.63-.67-1.52-1.08-2.51-1.08-1.9,0-3.44,1.54-3.44,3.44,0,.27.03.53.09.78-2.86-.15-5.4-1.52-7.09-3.6-.31.53-.47,1.12-.47,1.73,0,1.19.61,2.25,1.53,2.86-.56-.02-1.09-.17-1.56-.43v.04c0,1.67,1.19,3.06,2.76,3.38-.3.08-.6.12-.91.12-.22,0-.44-.02-.65-.06.44,1.37,1.71,2.36,3.21,2.39-1.18.92-2.66,1.47-4.28,1.47-.28,0-.55-.02-.82-.05,1.53.98,3.34,1.55,5.28,1.55,6.33,0,9.79-5.24,9.79-9.79,0-.15,0-.3,0-.45.67-.48,1.26-1.09,1.72-1.78h0s0,0,0,0Z"/></g></svg>