<?xml version="1.0" encoding="UTF-8"?><svg id="Calque_1" xmlns="http://www.w3.org/2000/svg" viewBox="0 0 320 320"><defs><style>.cls-1{fill:#fff;}.cls-2{fill:#7f54b3;}</style></defs><rect class="cls-2" width="320" height="320" rx="60" ry="60"/><path class="cls-1" d="m255.96,146.11c1.25,3.23,1.87,6.45,1.87,9.47,0,2.71-.21,5.31-.73,7.7h0c-1.46,6.87-4.06,11.97-7.91,15.4-3.02,2.71-5.83,3.85-8.43,3.33-2.5-.52-4.58-2.71-6.14-6.76-1.25-3.23-1.87-6.45-1.87-9.47,0-2.6.21-5.2.73-7.6.94-4.27,2.71-8.43,5.52-12.38,3.43-5.1,7.08-7.18,10.82-6.45,2.5.52,4.58,2.71,6.14,6.76Zm-65.25,0c-1.56-4.06-3.64-6.24-6.14-6.76-3.75-.73-7.39,1.35-10.82,6.45-2.81,3.95-4.58,8.12-5.52,12.38-.52,2.39-.73,5-.73,7.6,0,3.02.62,6.24,1.87,9.47,1.56,4.06,3.64,6.24,6.14,6.76,2.6.52,5.41-.62,8.43-3.33,3.85-3.43,6.45-8.53,7.91-15.4h0c.52-2.39.83-4.99.73-7.7,0-3.02-.62-6.24-1.87-9.47Zm97.29-25.88v79.54c0,13.19-10.67,23.86-23.86,23.86h-74.73l10.26,25.12-45.11-25.12H55.86c-13.19,0-23.86-10.68-23.86-23.86v-79.54c-.1-13.08,10.57-23.86,23.76-23.86h208.38c13.19,0,23.86,10.67,23.86,23.86Zm-147.04,40.87c2.71-17.48,6.04-30.07,10.09-37.57.83-1.56,1.14-3.12,1.04-5-.21-2.39-1.25-4.37-3.23-5.93-1.98-1.56-4.16-2.29-6.56-2.08-3.02.21-5.31,1.67-6.87,4.58-6.45,11.76-11.03,30.8-13.74,57.24-3.95-9.99-7.28-21.75-9.89-35.59-1.14-6.14-3.95-9.05-8.53-8.74-3.12.21-5.72,2.29-7.8,6.24l-22.79,43.4c-3.75-15.09-7.29-33.51-10.51-55.26-.73-5.41-3.75-7.91-9.05-7.49-2.91.21-5.1,1.25-6.56,3.23h0c-1.46,1.87-2.08,4.27-1.67,6.97,6.14,39.02,11.86,65.35,17.17,78.98,2.08,5,4.47,7.39,7.28,7.18,4.37-.31,9.57-6.35,15.71-18.11,3.23-6.66,8.22-16.65,14.98-29.97,5.62,19.67,13.32,34.45,23,44.33,2.71,2.81,5.52,4.06,8.22,3.85,2.39-.21,4.27-1.46,5.52-3.75,1.04-1.98,1.46-4.27,1.25-6.87-.62-9.47.31-22.69,2.91-39.65Zm69.1-6.14c0-8.12-1.66-14.88-5-20.5-3.75-6.56-9.37-10.51-16.65-12.07-1.98-.42-3.85-.62-5.62-.62-9.99,0-18.11,5.2-24.45,15.61-5.41,8.85-8.12,18.63-8.12,29.35,0,8.01,1.67,14.88,5,20.6,3.75,6.56,9.26,10.51,16.65,12.07,1.98.42,3.85.62,5.62.62,10.09,0,18.21-5.2,24.45-15.61,5.41-8.95,8.12-18.73,8.12-29.45Zm65.15,0c.1-8.12-1.67-14.88-5-20.5-3.75-6.56-9.26-10.51-16.65-12.07-1.98-.42-3.85-.62-5.62-.62-9.99,0-18.11,5.2-24.45,15.61-5.41,8.85-8.12,18.63-8.12,29.35,0,8.01,1.67,14.88,5,20.6,3.75,6.56,9.26,10.51,16.65,12.07,1.98.42,3.85.62,5.62.62,10.09,0,18.21-5.2,24.45-15.61,5.41-8.95,8.12-18.73,8.12-29.45Z"/></svg>