<?xml version="1.0" encoding="UTF-8"?><svg id="Calque_1" xmlns="http://www.w3.org/2000/svg" viewBox="0 0 320 320"><defs><style>.cls-1{fill:#20759a;}</style></defs><path class="cls-1" d="m55.33,160c0,41.43,24.08,77.23,58.99,94.2l-49.93-136.8c-5.81,13.02-9.06,27.42-9.06,42.6Zm175.33-5.28c0-12.94-4.65-21.89-8.63-28.87-5.31-8.62-10.28-15.92-10.28-24.55,0-9.62,7.3-18.58,17.58-18.58.46,0,.9.06,1.36.08-18.62-17.06-43.43-27.48-70.68-27.48-36.57,0-68.74,18.76-87.46,47.18,2.46.07,4.77.13,6.74.13,10.95,0,27.9-1.33,27.9-1.33,5.64-.33,6.31,7.95.67,8.62,0,0-5.67.67-11.98,1l38.12,113.37,22.91-68.7-16.31-44.68c-5.64-.33-10.98-1-10.98-1-5.64-.33-4.98-8.95.66-8.62,0,0,17.29,1.33,27.57,1.33,10.95,0,27.9-1.33,27.9-1.33,5.65-.33,6.31,7.95.67,8.62,0,0-5.68.67-11.98,1l37.83,112.52,10.44-34.89c4.53-14.48,7.97-24.88,7.97-33.84Zm-68.83,14.44l-31.41,91.26c9.38,2.76,19.29,4.26,29.57,4.26,12.19,0,23.88-2.11,34.76-5.93-.28-.45-.54-.92-.74-1.44l-32.18-88.14Zm90.01-59.37c.45,3.33.71,6.91.71,10.76,0,10.62-1.98,22.56-7.96,37.49l-31.97,92.44c31.12-18.15,52.05-51.86,52.05-90.47,0-18.2-4.65-35.31-12.82-50.22ZM160,27c35.53,0,68.92,13.83,94.05,38.95,25.12,25.12,38.95,58.52,38.95,94.05s-13.83,68.92-38.95,94.05c-25.12,25.12-58.52,38.95-94.05,38.95s-68.92-13.83-94.05-38.95c-25.12-25.12-38.95-58.52-38.95-94.05s13.83-68.92,38.95-94.05c25.12-25.12,58.52-38.95,94.05-38.95m0-27C71.63,0,0,71.63,0,160s71.63,160,160,160,160-71.63,160-160S248.37,0,160,0h0Z"/></svg>